<?xml version="1.0" standalone="no"?>
<!DOCTYPE svg PUBLIC "-//W3C//DTD SVG 20010904//EN"
 "http://www.w3.org/TR/2001/REC-SVG-20010904/DTD/svg10.dtd">
<svg version="1.0" xmlns="http://www.w3.org/2000/svg"
 width="900.000000pt" height="885.000000pt" viewBox="0 0 900.000000 885.000000"
 preserveAspectRatio="xMidYMid meet">
<metadata>
Created by potrace 1.10, written by Peter Selinger 2001-2011
</metadata>
<g transform="translate(0.000000,885.000000) scale(0.100000,-0.100000)"
fill="#000000" stroke="none">
<path d="M653 8322 c-16 -2 -24 -12 -28 -35 -3 -18 -4 -1749 -3 -3847 l3
-3815 115 -3 c63 -2 189 2 280 9 91 6 212 15 270 19 146 10 363 40 550 76 42
8 87 14 100 14 58 0 552 112 730 166 25 7 92 28 150 45 137 42 374 120 415
138 11 5 58 23 105 41 304 113 773 334 1015 477 28 16 57 32 65 36 8 5 24 13
35 20 23 13 177 106 203 122 64 39 218 141 347 230 103 71 335 247 449 339 54
45 113 92 130 106 27 21 70 59 130 115 6 6 40 37 76 69 277 250 624 621 831
886 23 30 46 57 49 60 9 7 179 234 235 315 146 209 340 516 434 688 17 31 45
83 63 115 130 235 353 722 418 912 5 14 18 50 30 80 24 63 142 417 166 500 8
30 21 75 29 100 7 25 20 74 30 110 9 36 23 88 31 116 8 28 14 59 14 69 0 10 6
41 14 69 22 79 64 287 76 376 4 30 13 89 19 130 58 356 73 513 98 1002 5 100
3 131 -7 144 -13 14 -317 16 -3829 12 -2099 -1 -3826 -4 -3838 -6z"/>
<path d="M8030 3350 c-113 -7 -172 -15 -320 -47 -72 -15 -107 -24 -230 -60
-142 -41 -378 -143 -537 -233 -298 -168 -607 -439 -815 -715 -44 -58 -152
-220 -174 -260 -186 -336 -280 -599 -339 -945 -21 -127 -36 -391 -23 -408 8
-9 284 -12 1342 -10 l1331 3 0 1340 0 1340 -60 1 c-33 1 -112 -2 -175 -6z"/>
</g>
</svg>
