<?xml version="1.0" standalone="no"?>
<!DOCTYPE svg PUBLIC "-//W3C//DTD SVG 20010904//EN"
 "http://www.w3.org/TR/2001/REC-SVG-20010904/DTD/svg10.dtd">
<svg version="1.0" xmlns="http://www.w3.org/2000/svg"
 width="900.000000pt" height="885.000000pt" viewBox="0 0 900.000000 885.000000"
 preserveAspectRatio="xMidYMid meet">
<metadata>
Created by potrace 1.10, written by Peter Selinger 2001-2011
</metadata>
<g transform="translate(0.000000,885.000000) scale(0.100000,-0.100000)"
fill="#000000" stroke="none">
<path d="M0 4425 l0 -4425 4500 0 4500 0 0 4425 0 4425 -4500 0 -4500 0 0
-4425z m8320 3891 c10 -13 12 -44 7 -144 -25 -489 -40 -646 -98 -1002 -6 -41
-15 -100 -19 -130 -12 -89 -54 -297 -76 -376 -8 -28 -14 -59 -14 -69 0 -10 -6
-41 -14 -69 -8 -28 -22 -80 -31 -116 -10 -36 -23 -85 -30 -110 -8 -25 -21 -70
-29 -100 -24 -83 -142 -437 -166 -500 -12 -30 -25 -66 -30 -80 -65 -190 -288
-677 -418 -912 -18 -32 -46 -84 -63 -115 -94 -172 -288 -479 -434 -688 -56
-81 -226 -308 -235 -315 -3 -3 -26 -30 -49 -60 -207 -265 -554 -636 -831 -886
-36 -32 -70 -63 -76 -69 -60 -56 -103 -94 -130 -115 -17 -14 -76 -61 -130
-106 -114 -92 -346 -268 -449 -339 -129 -89 -283 -191 -347 -230 -26 -16 -180
-109 -203 -122 -11 -7 -27 -15 -35 -20 -8 -4 -37 -20 -65 -36 -242 -143 -711
-364 -1015 -477 -47 -18 -94 -36 -105 -41 -41 -18 -278 -96 -415 -138 -58 -17
-125 -38 -150 -45 -103 -31 -312 -83 -485 -120 -181 -38 -222 -46 -245 -46
-13 0 -58 -6 -100 -14 -187 -36 -404 -66 -550 -76 -58 -4 -179 -13 -270 -19
-91 -7 -217 -11 -280 -9 l-115 3 -3 3815 c-1 2098 0 3829 3 3847 4 23 12 33
28 35 12 2 1739 5 3838 6 3512 4 3816 2 3829 -12z m-55 -6301 l0 -1340 -1331
-3 c-1058 -2 -1334 1 -1342 10 -13 17 2 281 23 408 59 346 153 609 339 945 22
40 130 202 174 260 208 276 517 547 815 715 159 90 395 192 537 233 155 45
220 60 370 88 71 13 261 27 355 25 l60 -1 0 -1340z"/>
</g>
</svg>
