<?xml version="1.0" standalone="no"?>
<!DOCTYPE svg PUBLIC "-//W3C//DTD SVG 20010904//EN"
 "http://www.w3.org/TR/2001/REC-SVG-20010904/DTD/svg10.dtd">
<svg version="1.0" xmlns="http://www.w3.org/2000/svg"
 width="900.000000pt" height="336.000000pt" viewBox="0 0 900.000000 336.000000"
 preserveAspectRatio="xMidYMid meet">
<metadata>
Created by potrace 1.10, written by Peter Selinger 2001-2011
</metadata>
<g transform="translate(0.000000,336.000000) scale(0.100000,-0.100000)"
fill="#000000" stroke="none">
<path d="M6640 2482 c-101 -27 -131 -151 -54 -223 22 -21 35 -24 101 -24 75 0
75 0 109 39 72 84 25 196 -87 209 -24 3 -55 2 -69 -1z"/>
<path d="M7980 2481 c-93 -23 -128 -120 -70 -199 24 -34 36 -42 75 -47 55 -9
114 1 139 23 79 71 49 200 -52 223 -41 9 -55 10 -92 0z"/>
<path d="M6212 2418 c-9 -9 -12 -76 -12 -240 0 -146 -4 -228 -10 -228 -6 0
-26 17 -45 38 -19 21 -63 53 -99 70 -61 30 -73 32 -168 32 -79 0 -115 -5 -156
-20 -117 -45 -206 -126 -255 -232 -55 -121 -62 -129 -73 -80 -20 94 -124 225
-221 279 -68 38 -139 53 -250 53 -115 0 -118 -1 -233 -53 -57 -26 -178 -148
-206 -207 -43 -93 -54 -142 -54 -247 0 -126 25 -204 97 -301 34 -46 115 -122
130 -122 5 0 14 -5 21 -12 25 -25 184 -68 252 -68 113 0 250 54 335 132 59 53
130 162 121 184 -8 22 -231 20 -248 -2 -44 -56 -84 -83 -144 -100 -61 -16 -67
-16 -128 0 -97 27 -189 115 -198 192 l-3 29 375 0 375 0 3 -25 c4 -39 35 -133
49 -151 7 -8 13 -19 13 -23 0 -12 61 -87 100 -123 42 -39 136 -86 203 -102
133 -31 278 10 373 105 25 24 49 44 54 44 6 0 10 -29 10 -64 0 -49 4 -65 16
-70 20 -8 142 -8 172 0 l22 6 0 653 0 653 -22 6 c-42 11 -183 7 -196 -6z
m-1207 -536 c57 -12 121 -56 151 -103 47 -75 50 -74 -225 -77 -150 -1 -248 1
-254 7 -15 15 74 141 98 141 5 0 16 6 24 14 18 15 114 35 146 30 11 -2 38 -8
60 -12z m1022 -19 c54 -24 131 -100 154 -152 26 -60 26 -182 -1 -242 -53 -120
-190 -194 -311 -168 -113 24 -186 90 -219 197 -24 78 -25 104 -3 173 31 99 73
148 163 191 48 23 167 23 217 1z"/>
<path d="M985 2228 c-3 -7 -4 -296 -3 -643 l3 -630 60 -3 c147 -8 435 79 590
178 17 11 37 23 45 27 83 38 345 300 383 383 4 8 16 29 27 45 24 39 90 173 90
185 0 5 6 24 14 42 39 93 79 289 74 368 l-3 55 -638 3 c-505 2 -639 0 -642
-10z"/>
<path d="M3210 2075 c-14 -8 -32 -14 -41 -15 -8 0 -43 -25 -77 -56 -67 -60
-69 -59 -74 16 l-3 45 -100 0 -100 0 0 -480 0 -480 85 -3 c47 -2 95 0 108 3
l22 5 0 232 c0 309 14 388 79 462 50 55 95 76 165 76 57 0 69 -4 107 -33 30
-22 50 -49 65 -87 22 -53 23 -67 24 -345 0 -213 3 -294 12 -303 16 -16 179
-16 200 1 15 10 17 48 20 297 3 263 5 288 23 320 62 109 120 150 211 150 85 0
131 -29 172 -108 21 -41 22 -52 22 -342 0 -258 2 -301 16 -314 23 -23 186 -23
209 1 15 14 16 47 12 322 -5 303 -17 415 -46 444 -6 6 -11 17 -11 25 0 17 -61
97 -92 121 -58 45 -113 61 -217 61 -74 0 -110 -5 -138 -17 -65 -30 -144 -96
-181 -151 l-15 -23 -23 22 c-13 13 -24 27 -24 33 0 19 -90 95 -136 116 -58 25
-233 29 -274 5z"/>
<path d="M7209 2071 c-173 -63 -290 -199 -325 -376 -18 -88 -18 -133 0 -215
20 -100 62 -176 136 -251 94 -94 225 -149 355 -149 183 0 365 112 443 272 52
109 53 108 -83 108 -101 0 -116 -2 -122 -17 -13 -34 -58 -86 -98 -111 -36 -24
-50 -27 -135 -27 -87 0 -99 2 -143 29 -197 117 -178 434 31 526 63 28 167 27
224 -2 52 -26 95 -64 114 -100 l15 -28 114 0 c135 0 135 1 84 98 -62 119 -155
199 -284 244 -67 24 -260 24 -326 -1z"/>
<path d="M6583 2064 c-10 -5 -13 -109 -13 -474 0 -547 -15 -492 133 -488 l92
3 0 480 0 480 -100 2 c-55 1 -106 -1 -112 -3z"/>
<path d="M7917 2063 c-4 -3 -7 -217 -7 -473 0 -399 2 -469 15 -480 16 -14 197
-11 212 3 13 14 16 927 2 943 -8 10 -39 14 -114 14 -56 0 -105 -3 -108 -7z"/>
<path d="M2120 1383 c-140 -63 -214 -130 -266 -242 -29 -61 -34 -83 -32 -130
l3 -56 205 -2 c113 -2 210 1 217 5 9 5 12 65 13 212 1 113 1 211 1 218 -1 18
-98 14 -141 -5z"/>
</g>
</svg>
